<svg width="140" height="24" viewBox="0 0 140 24" fill="none" xmlns="http://www.w3.org/2000/svg">
<path d="M12 0L15.1176 7.70897L23.4127 8.2918L17.0444 13.639L19.0534 21.7082L12 17.304L4.94658 21.7082L6.9556 13.639L0.587322 8.2918L8.88239 7.70897L12 0Z" fill="#4E48E0"/>
<path d="M41 0L44.1176 7.70897L52.4127 8.2918L46.0444 13.639L48.0534 21.7082L41 17.304L33.9466 21.7082L35.9556 13.639L29.5873 8.2918L37.8824 7.70897L41 0Z" fill="#4E48E0"/>
<path d="M70 0L73.1176 7.70897L81.4127 8.2918L75.0444 13.639L77.0534 21.7082L70 17.304L62.9466 21.7082L64.9556 13.639L58.5873 8.2918L66.8824 7.70897L70 0Z" fill="#4E48E0"/>
<path d="M99 0L102.118 7.70897L110.413 8.2918L104.044 13.639L106.053 21.7082L99 17.304L91.9466 21.7082L93.9556 13.639L87.5873 8.2918L95.8824 7.70897L99 0Z" fill="#4E48E0"/>
<path d="M128 0L131.118 7.70897L139.413 8.2918L133.044 13.639L135.053 21.7082L128 17.304L120.947 21.7082L122.956 13.639L116.587 8.2918L124.882 7.70897L128 0Z" fill="#969696"/>
</svg>
