<svg width="71" height="210" viewBox="0 0 71 210" fill="none" xmlns="http://www.w3.org/2000/svg">
<circle cx="8.80661" cy="34.5587" r="6.67969" transform="rotate(-4 8.80661 34.5587)" fill="#06C269"/>
<circle cx="7.12937" cy="10.5704" r="6.67969" transform="rotate(-4 7.12937 10.5704)" fill="#06C269"/>
<circle cx="10.4843" cy="58.547" r="6.67969" transform="rotate(-4 10.4843 58.547)" fill="#06C269"/>
<circle cx="12.1616" cy="82.5352" r="6.67969" transform="rotate(-4 12.1616 82.5352)" fill="#06C269"/>
<circle cx="13.8388" cy="106.524" r="6.67969" transform="rotate(-4 13.8388 106.524)" fill="#06C269"/>
<circle cx="15.5166" cy="130.512" r="6.67969" transform="rotate(-4 15.5166 130.512)" fill="#06C269"/>
<circle cx="17.1938" cy="154.5" r="6.67969" transform="rotate(-4 17.1938 154.5)" fill="#06C269"/>
<circle cx="18.8716" cy="178.488" r="6.67969" transform="rotate(-4 18.8716 178.488)" fill="#06C269"/>
<circle cx="20.5488" cy="202.477" r="6.67969" transform="rotate(-4 20.5488 202.477)" fill="#06C269"/>
<circle cx="30.1137" cy="33.0687" r="6.67969" transform="rotate(-4 30.1137 33.0687)" fill="#06C269"/>
<circle cx="28.4365" cy="9.0804" r="6.67969" transform="rotate(-4 28.4365 9.0804)" fill="#06C269"/>
<circle cx="31.7915" cy="57.057" r="6.67969" transform="rotate(-4 31.7915 57.057)" fill="#06C269"/>
<circle cx="33.4687" cy="81.0452" r="6.67969" transform="rotate(-4 33.4687 81.0452)" fill="#06C269"/>
<circle cx="35.146" cy="105.034" r="6.67969" transform="rotate(-4 35.146 105.034)" fill="#06C269"/>
<circle cx="36.8237" cy="129.022" r="6.67969" transform="rotate(-4 36.8237 129.022)" fill="#06C269"/>
<circle cx="38.5009" cy="153.01" r="6.67969" transform="rotate(-4 38.5009 153.01)" fill="#06C269"/>
<circle cx="40.1787" cy="176.998" r="6.67969" transform="rotate(-4 40.1787 176.998)" fill="#06C269"/>
<circle cx="41.8559" cy="200.987" r="6.67969" transform="rotate(-4 41.8559 200.987)" fill="#06C269"/>
<circle cx="51.4214" cy="31.5788" r="6.67969" transform="rotate(-4 51.4214 31.5788)" fill="#06C269"/>
<circle cx="49.7441" cy="7.59053" r="6.67969" transform="rotate(-4 49.7441 7.59053)" fill="#06C269"/>
<circle cx="53.0991" cy="55.5671" r="6.67969" transform="rotate(-4 53.0991 55.5671)" fill="#06C269"/>
<circle cx="54.7763" cy="79.5554" r="6.67969" transform="rotate(-4 54.7763 79.5554)" fill="#06C269"/>
<circle cx="56.4536" cy="103.544" r="6.67969" transform="rotate(-4 56.4536 103.544)" fill="#06C269"/>
<circle cx="58.1313" cy="127.532" r="6.67969" transform="rotate(-4 58.1313 127.532)" fill="#06C269"/>
<circle cx="59.8086" cy="151.52" r="6.67969" transform="rotate(-4 59.8086 151.52)" fill="#06C269"/>
<circle cx="61.4863" cy="175.509" r="6.67969" transform="rotate(-4 61.4863 175.509)" fill="#06C269"/>
<circle cx="63.0703" cy="198.164" r="6.67969" transform="rotate(-4 63.0703 198.164)" fill="#06C269"/>
</svg>
