<svg width="24" height="24" viewBox="0 0 24 24" fill="none" xmlns="http://www.w3.org/2000/svg">
<rect width="24" height="24" rx="5" fill="#ECFFF6"/>
<path d="M10.812 7.17243L10.8098 7.18285C10.7485 7.47191 10.7174 7.79612 10.7174 8.0877V8.0909V8.09411V8.09731V8.10051V8.10371V8.10692V8.11012V8.11332V8.11653V8.11973V8.12293V8.12614V8.12934V8.13254V8.13575V8.13895V8.14215V8.14536V8.14856V8.15176V8.15497V8.15817V8.16137V8.16458V8.16778V8.17098V8.17419V8.17739V8.18059V8.1838V8.187V8.1902V8.19341V8.19661V8.19981V8.20302V8.20622V8.20942V8.21263V8.21583V8.21903V8.22224V8.22544V8.22864V8.23185V8.23505V8.23825V8.24146V8.24466V8.24786V8.25107V8.25427V8.25747V8.26068V8.26388V8.26708V8.27029V8.27349V8.27669V8.2799V8.2831V8.2863V8.28951V8.29271V8.29591V8.29912V8.30232V8.30552V8.30873V8.31193V8.31513V8.31834V8.32154V8.32474V8.32795V8.33115V8.33435V8.33756V8.34076V8.34396V8.34717V8.35037V8.35357V8.35678V8.35998V8.36318V8.36639V8.36959V8.37279V8.376V8.3792V8.3824V8.38561V8.38881V8.39201V8.39522V8.39842V8.40162V8.40483V8.40803V8.41123V8.41444V8.41764V8.42084V8.42405V8.42725V8.43045V8.43366V8.43686V8.44006V8.44326V8.44647V8.44967V8.45287V8.45608V8.45928V8.46248V8.46569V8.46889V8.47209V8.4753V8.4785V8.4817V8.48491V8.48811V8.49131V8.49452V8.49772V8.50092V8.50413V8.50733V8.51053V8.51374V8.51694V8.52014V8.52335V8.52655V8.52975V8.53296V8.53616V8.53936V8.54257V8.54577V8.54897V8.55218V8.55538V8.55858V8.56179V8.56499V8.56819V8.5714V8.5746V8.5778V8.58101V8.58421V8.58741V8.59062V8.59382V8.59702V8.60023V8.60343V8.60663V8.60984V8.61304V8.61624V8.61945V8.62265V8.62585V8.62906V8.63226V8.63546V8.63867V8.64187V8.64507V8.64828V8.65148V8.65468V8.65789V8.66109V8.66429V8.6675V8.6707V8.6739V8.67711V8.68031V8.68351V8.68672V8.68992V8.69312V8.69633V8.69953V8.70273V8.70594V8.70914V8.71234V8.71555V8.71875V8.72195V8.72516V8.72836V8.73156V8.73477V8.73797V8.74117V8.74438V8.74758V8.75078V8.75399V8.75719V8.76039V8.7636V8.7668V8.77V8.77321V8.77641V8.77961V8.78282V8.78602V8.78922V8.79243V8.79563V8.79883V8.80204V8.80524V8.80844V8.81165V8.81485V8.81805V8.82126V8.82446V8.82766V8.83086V8.83407V8.83727V8.84047V8.84368V8.84688V8.85008V8.85329V8.85649V8.85969V8.8629V8.8661V8.8693V8.87251V8.87571V8.87891V8.88212V8.88532V8.88852V8.89173V8.89493V8.89813V8.90134V8.90454V8.90774V8.91095V8.91415V8.91735V8.92056V8.92376V8.92696V8.93017V8.93337V8.93657V8.93978V8.94298V8.94618V8.94939V8.95259V8.95579V8.959V8.9622V8.9654V8.96861V8.97181V8.97501V8.97822V8.98142V8.98462V8.98783V8.99103V8.99423V8.99744V9.00064V9.00384V9.00705V9.01025V9.01345V9.01666V9.01986V9.02306V9.02627V9.02947V9.03267V9.03588V9.03908V9.04228V9.04549V9.04869V9.05189V9.0551V9.0583V9.0615V9.06471V9.06791V9.07111V9.07432V9.07752V9.08072V9.08393V9.08713V9.09033V9.09354V9.09674V9.09994V9.10315V9.10635V9.10955V9.11276V9.11596V9.11916V9.12237V9.12557V9.12877V9.13198V9.13518V9.13838V9.14159V9.14479V9.14799V9.1512V9.1544V9.1576V9.16081V9.16401V9.16721V9.17042V9.17362V9.17682V9.18003V9.18323V9.18643V9.18964V9.19284V9.19604V9.19924V9.20245V9.20565V9.20886V9.21206V9.21526V9.21846V9.22167V9.22487V9.22808V9.23128V9.23448V9.23768V9.24089V9.24409V9.24729V9.2505V9.2537V9.2569V9.26011V9.26331V9.26651V9.26972V9.27292V9.27612V9.27933V9.28253V9.28573V9.28894V9.29214V9.29534V9.29855V9.30175V9.30495V9.30816V9.31136V9.31456V9.31777V9.32097V9.32417V9.32738V9.33058V9.33378V9.33699V9.34019V9.34339V9.3466V9.3498V9.353V9.35621V9.35941V9.36261V9.36582V9.36902V9.37222V9.37543V9.37863V9.38183V9.38504V9.38824V9.39144V9.39465V9.39785V9.40105V9.40426V9.40746V9.41066V9.41387V9.41707V9.42027V9.42348V9.42668V9.42988V9.43309V9.43629V9.43949V9.4427V9.4459V9.4491V9.45231V9.45551V9.45871V9.46192V9.46512V9.46832V9.47153V9.47473V9.47793V9.48114V9.48434V9.48754V9.49075V9.49395V9.49715V9.50036V9.50356V9.50676V9.50997V9.51317V9.51637V9.51958V9.52278V9.52598V9.52919V9.53239V9.53559V9.5388V9.542V9.5452V9.54841V9.55161V9.55481V9.55802V9.56122V9.56442V9.56763V9.57083V9.57403V9.57724V9.58044V9.58364V9.58684V9.59005V9.59325V9.59646V9.59966V9.60286V9.60606V9.60927V9.61247V9.61567V9.61888V9.62208V9.62528V9.62849V9.63169V9.63489V9.6381V9.6413V9.6445V9.64771V9.65091V9.65411V9.65732V9.66052V9.66372V9.66693V9.67013V9.67333V9.67654V9.67974V9.68294V9.68615V9.68935V9.69255V9.69576V9.69896V9.70216V9.70537V9.70857V9.71177V9.71498V9.71818V9.72138V9.72459V9.72779V10.0011V10.2511H10.4674H8.5V12.4505H10.4348H10.6848V12.7005V19.25H12.9239V12.6663V12.4163H13.1739H15.1317L15.3442 10.217H13.0761H12.8261V9.96697H13.0761L10.812 7.17243ZM10.812 7.17243L10.8133 7.16186M10.812 7.17243L10.8133 7.16186M10.8133 7.16186C10.903 6.4416 11.2927 5.75135 11.8573 5.31449C12.3644 4.94014 12.9951 4.75 13.6304 4.75H13.6331H13.6358H13.6385H13.6411H13.6438H13.6465H13.6492H13.6518H13.6545H13.6572H13.6599H13.6625H13.6652H13.6679H13.6706H13.6732H13.6759H13.6786H13.6813H13.6839H13.6866H13.6893H13.692H13.6946H13.6973H13.7H13.7027H13.7053H13.708H13.7107H13.7134H13.716H13.7187H13.7214H13.7241H13.7267H13.7294H13.7321H13.7348H13.7374H13.7401H13.7428H13.7455H13.7481H13.7508H13.7535H13.7562H13.7588H13.7615H13.7642H13.7669H13.7695H13.7722H13.7749H13.7776H13.7802H13.7829H13.7856H13.7883H13.7909H13.7936H13.7963H13.799H13.8016H13.8043H13.807H13.8097H13.8123H13.815H13.8177H13.8204H13.823H13.8257H13.8284H13.8311H13.8337H13.8364H13.8391H13.8418H13.8444H13.8471H13.8498H13.8525H13.8551H13.8578H13.8605H13.8632H13.8658H13.8685H13.8712H13.8739H13.8765H13.8792H13.8819H13.8846H13.8872H13.8899H13.8926H13.8953H13.8979H13.9006H13.9033H13.906H13.9086H13.9113H13.914H13.9167H13.9193H13.922H13.9247H13.9274H13.93H13.9327H13.9354H13.9381H13.9407H13.9434H13.9461H13.9488H13.9514H13.9541H13.9568H13.9595H13.9621H13.9648H13.9675H13.9702H13.9728H13.9755H13.9782H13.9809H13.9835H13.9862H13.9889H13.9916H13.9942H13.9969H13.9996H14.0023H14.0049H14.0076H14.0103H14.0129H14.0156H14.0183H14.021H14.0236H14.0263H14.029H14.0317H14.0343H14.037H14.0397H14.0424H14.045H14.0477H14.0504H14.0531H14.0557H14.0584H14.0611H14.0638H14.0664H14.0691H14.0718H14.0745H14.0771H14.0798H14.0825H14.0852H14.0878H14.0905H14.0932H14.0959H14.0985H14.1012H14.1039H14.1066H14.1092H14.1119H14.1146H14.1173H14.1199H14.1226H14.1253H14.128H14.1306H14.1333H14.136H14.1387H14.1413H14.144H14.1467H14.1494H14.152H14.1547H14.1574H14.1601H14.1627H14.1654H14.1681H14.1708H14.1734H14.1761H14.1788H14.1815H14.1841H14.1868H14.1895H14.1922H14.1948H14.1975H14.2002H14.2029H14.2055H14.2082H14.2109H14.2136H14.2162H14.2189H14.2216H14.2243H14.2269H14.2296H14.2323H14.235H14.2376H14.2403H14.243H14.2457H14.2483H14.251H14.2537H14.2564H14.259H14.2617H14.2644H14.2671H14.2697H14.2724H14.2751H14.2778H14.2804H14.2831H14.2858H14.2885H14.2911H14.2938H14.2965H14.2992H14.3018H14.3045H14.3072H14.3099H14.3125H14.3152H14.3179H14.3206H14.3232H14.3259H14.3286H14.3313H14.3339H14.3366H14.3393H14.342H14.3446H14.3473H14.35H14.3527H14.3553H14.358H14.3607H14.3634H14.366H14.3687H14.3714H14.3741H14.3767H14.3794H14.3821H14.3848H14.3874H14.3901H14.3928H14.3955H14.3981H14.4008H14.4035H14.4062H14.4088H14.4115H14.4142H14.4169H14.4195H14.4222H14.4249H14.4276H14.4302H14.4329H14.4356H14.4383H14.4409H14.4436H14.4463H14.449H14.4516H14.4543H14.457H14.4597H14.4623H14.465H14.4677H14.4704H14.473H14.4757H14.4784H14.4811H14.4837H14.4864H14.4891H14.4918H14.4944H14.4971H14.4998H14.5025H14.5051H14.5078H14.5105H14.5132H14.5158H14.5185H14.5212H14.5239H14.5265H14.5292H14.5319H14.5346H14.5372H14.5399H14.5426H14.5453H14.5479H14.5506H14.5533H14.556H14.5586H14.5613H14.564H14.5667H14.5693H14.572H14.5747H14.5774H14.58H14.5827H14.5854H14.5881H14.5907H14.5934H14.5961H14.5988H14.6014H14.6041H14.6068H14.6095H14.6121H14.6148H14.6175H14.6202H14.6228H14.6255H14.6282H14.6309H14.6335H14.6362H14.6389H14.6416H14.6442H14.6469H14.6496H14.6523H14.6549H14.6576H14.6603H14.663H14.6656H14.6683H14.671H14.6737H14.6763H14.679H14.6817H14.6844H14.687H14.6897H14.6924H14.6951H14.6977H14.7004H14.7031H14.7058H14.7084H14.7111H14.7138H14.7165H14.7191H14.7218H14.7245H14.7272H14.7298H14.7325H14.7352H14.7379H14.7405H14.7432H14.7459H14.7486H14.7512H14.7539H14.7566H14.7593H14.7619H14.7646H14.7673H14.77H14.7726H14.7753H14.778H14.7807H14.7833H14.786H14.7887H14.7914H14.794H14.7967H14.7994H14.8021H14.8047H14.8074H14.8101H14.8128H14.8154H14.8181H14.8208H14.8235H14.8261H14.8288H14.8315H14.8342H14.8368H14.8395H14.8422H14.8449H14.8475H14.8502H14.8529H14.8556H14.8582H14.8609H14.8636H14.8663H14.8689H14.8716H14.8743H14.877H14.8796H14.8823H14.885H14.8877H14.8903H14.893H14.8957H14.8984H14.901H14.9037H14.9064H14.9091H14.9117H14.9144H14.9171H14.9198H14.9224H14.9251H14.9278H14.9305H14.9331H14.9358H14.9385H14.9412H14.9438H14.9465H14.9492H14.9519H14.9545H14.9572H14.9599H14.9626H14.9652H14.9679H14.9706H14.9732H14.9759H14.9786H14.9813H14.9839H14.9866H14.9893H14.992H14.9946H14.9973H15C15.1112 4.75 15.2256 4.76459 15.3537 4.78192C15.3598 4.78274 15.366 4.78357 15.3722 4.78441C15.4131 4.78997 15.456 4.79579 15.5 4.80101V6.74431M10.8133 7.16186L15.5 6.74431M12.8261 8.03867L12.8278 8.02392L12.8261 8.03867ZM12.8261 8.03867V8.05353M12.8261 8.03867V8.05353M12.8261 8.05353V8.05695M12.8261 8.05353V8.05695M15.5 6.74431H15.4995H15.497H15.4945H15.492H15.4895H15.487H15.4845H15.482H15.4795H15.477H15.4745H15.472H15.4695H15.467H15.4645H15.4619H15.4594H15.4569H15.4544H15.4519H15.4494H15.4469H15.4444H15.4418H15.4393H15.4368H15.4343H15.4318H15.4293H15.4267H15.4242H15.4217H15.4192H15.4166H15.4141H15.4116H15.4091H15.4065H15.404H15.4015H15.399H15.3964H15.3939H15.3914H15.3889H15.3863H15.3838H15.3813H15.3787H15.3762H15.3737H15.3711H15.3686H15.3661H15.3635H15.361H15.3584H15.3559H15.3534H15.3508H15.3483H15.3458H15.3432H15.3407H15.3381H15.3356H15.333H15.3305H15.328H15.3254H15.3229H15.3203H15.3178H15.3152H15.3127H15.3101H15.3076H15.305H15.3025H15.2999H15.2974H15.2948H15.2923H15.2897H15.2872H15.2846H15.282H15.2795H15.2769H15.2744H15.2718H15.2693H15.2667H15.2641H15.2616H15.259H15.2565H15.2539H15.2513H15.2488H15.2462H15.2436H15.2411H15.2385H15.2359H15.2334H15.2308H15.2282H15.2257H15.2231H15.2205H15.218H15.2154H15.2128H15.2102H15.2077H15.2051H15.2025H15.2H15.1974H15.1948H15.1922H15.1897H15.1871H15.1845H15.1819H15.1793H15.1768H15.1742H15.1716H15.169H15.1665H15.1639H15.1613H15.1587H15.1561H15.1535H15.151H15.1484H15.1458H15.1432H15.1406H15.138H15.1354H15.1329H15.1303H15.1277H15.1251H15.1225H15.1199H15.1173H15.1147H15.1121H15.1095H15.107H15.1044H15.1018H15.0992H15.0966H15.094H15.0914H15.0888H15.0862H15.0836H15.081H15.0784H15.0758H15.0732H15.0706H15.068H15.0654H15.0628H15.0602H15.0576H15.055H15.0524H15.0498H15.0472H15.0446H15.042H15.0394H15.0368H15.0342H15.0316H15.029H15.0264H15.0237H15.0211H15.0185H15.0159H15.0133H15.0107H15.0081H15.0055H15.0029H15.0003H14.9976H14.995H14.9924H14.9898H14.9872H14.9846H14.982H14.9794H14.9767H14.9741H14.9715H14.9689H14.9663H14.9637H14.961H14.9584H14.9558H14.9532H14.9506H14.9479H14.9453H14.9427H14.9401H14.9375H14.9348H14.9322H14.9296H14.927H14.9244H14.9217H14.9191H14.9165H14.9139H14.9112H14.9086H14.906H14.9034H14.9007H14.8981H14.8955H14.8928H14.8902H14.8876H14.885H14.8823H14.8797H14.8771H14.8744H14.8718H14.8692H14.8665H14.8639H14.8613H14.8586H14.856H14.8534H14.8507H14.8481H14.8455H14.8428H14.8402H14.8376H14.8349H14.8323H14.8297H14.827H14.8244H14.8218H14.8191H14.8165H14.8138H14.8112H14.8086H14.8059H14.8033H14.8006H14.798H14.7954H14.7927H14.7901H14.7874H14.7848H14.7822H14.7795H14.7769H14.7742H14.7716H14.7689H14.7663H14.7637H14.761H14.7584H14.7557H14.7531H14.7504H14.7478H14.7451H14.7425H14.7398H14.7372H14.7346H14.7319H14.7293H14.7266H14.724H14.7213H14.7187H14.716H14.7134H14.7107H14.7081H14.7054H14.7028H14.7001H14.6975H14.6948H14.6922H14.6895H14.6869H14.6842H14.6816H14.6789H14.6762H14.6736H14.6709H14.6683H14.6656H14.663H14.6603H14.6577H14.655H14.6524H14.6497H14.647H14.6444H14.6417H14.6391H14.6364H14.6338H14.6311H14.6284H14.6258H14.6231H14.6205H14.6178H14.6152H14.6125H14.6098H14.6072H14.6045H14.6019H14.5992H14.5965H14.5939H14.5912H14.5886H14.5859H14.5832H14.5806H14.5779H14.5752H14.5726H14.5699H14.5673H14.5646H14.5619H14.5593H14.5566H14.5539H14.5513H14.5486H14.546H14.5433H14.5406H14.538H14.5353H14.5326H14.53H14.5273H14.5246H14.522H14.5193H14.5166H14.514H14.5113H14.5086H14.506H14.5033H14.5006H14.498H14.4953H14.4926H14.49H14.4873H14.4846H14.482H14.4793H14.4766H14.474H14.4713H14.4686H14.466H14.4633H14.4606H14.458H14.4553H14.4526H14.45H14.4473H14.4446H14.4419H14.4393H14.4366H14.4339H14.4313H14.4286H14.4259H14.4233H14.4206H14.4179H14.4152H14.4126H14.4099H14.4072H14.4046H14.4019H14.3992H14.3965H14.3939H14.3912H14.3885H14.3859H14.3832H14.3805H14.3778H14.3752H14.3725H14.3698H14.3671H14.3645H14.3618H14.3591H14.3565H14.3538H14.3511H14.3484H14.3458H14.3431H14.3404H14.3377H14.3351H14.3324H14.3297H14.327H14.3244H14.3217H14.319H14.3164H14.3137H14.311H14.3083H14.3057H14.303H14.3003H14.2976H14.295H14.2923H14.2896H14.2869H14.2843H14.2816H14.2789H14.2762H14.2736H14.2709H14.2682H14.2655H14.2629H14.2602H14.2575H14.2548H14.2522H14.2495H14.2468H14.2441H14.2415H14.2388H14.2361H14.2334H14.2308H14.2281H14.2254H14.2227H14.2201H14.2174H15.5ZM12.8261 8.05695V8.06037M12.8261 8.05695V8.06037M12.8261 8.06037V8.06382M12.8261 8.06037V8.06382M12.8261 8.06382V8.06728M12.8261 8.06382V8.06728M12.8261 8.06728V8.07076M12.8261 8.06728V8.07076M12.8261 8.07076V8.07426M12.8261 8.07076V8.07426M12.8261 8.07426V8.07777M12.8261 8.07426V8.07777M12.8261 8.07777V8.0813M12.8261 8.07777V8.0813M12.8261 8.0813V8.08485M12.8261 8.0813V8.08485M12.8261 8.08485V8.08841M12.8261 8.08485V8.08841M12.8261 8.08841V8.09199M12.8261 8.08841V8.09199M12.8261 8.09199V8.09559M12.8261 8.09199V8.09559M12.8261 8.09559V8.0992M12.8261 8.09559V8.0992M12.8261 8.0992V8.10283M12.8261 8.0992V8.10283M12.8261 8.10283V8.10647M12.8261 8.10283V8.10647M12.8261 8.10647V8.11013M12.8261 8.10647V8.11013M12.8261 8.11013V8.1138M12.8261 8.11013V8.1138M12.8261 8.1138V8.11749M12.8261 8.1138V8.11749M12.8261 8.11749V8.1212M12.8261 8.11749V8.1212M12.8261 8.1212V8.12492M12.8261 8.1212V8.12492M12.8261 8.12492V8.12866M12.8261 8.12492V8.12866M12.8261 8.12866V8.13241M12.8261 8.12866V8.13241M12.8261 8.13241V8.13618M12.8261 8.13241V8.13618M12.8261 8.13618V8.13996M12.8261 8.13618V8.13996M12.8261 8.13996V8.14375M12.8261 8.13996V8.14375M12.8261 8.14375V8.14757M12.8261 8.14375V8.14757M12.8261 8.14757V8.15139M12.8261 8.14757V8.15139M12.8261 8.15139V8.15523M12.8261 8.15139V8.15523M12.8261 8.15523V8.15909M12.8261 8.15523V8.15909M12.8261 8.15909V8.16296M12.8261 8.15909V8.16296M12.8261 8.16296V8.16685M12.8261 8.16296V8.16685M12.8261 8.16685V8.17075M12.8261 8.16685V8.17075M12.8261 8.17075V8.17466M12.8261 8.17075V8.17466M12.8261 8.17466V8.17859M12.8261 8.17466V8.17859M12.8261 8.17859V8.18253M12.8261 8.17859V8.18253M12.8261 8.18253V8.18648M12.8261 8.18253V8.18648M12.8261 8.18648V8.19045M12.8261 8.18648V8.19045M12.8261 8.19045V8.19444M12.8261 8.19045V8.19444M12.8261 8.19444V8.19843M12.8261 8.19444V8.19843M12.8261 8.19843V8.20244M12.8261 8.19843V8.20244M12.8261 8.20244V8.20647M12.8261 8.20244V8.20647M12.8261 8.20647V8.2105M12.8261 8.20647V8.2105M12.8261 8.2105V8.21456M12.8261 8.2105V8.21456M12.8261 8.21456V8.21862M12.8261 8.21456V8.21862M12.8261 8.21862V8.2227M12.8261 8.21862V8.2227M12.8261 8.2227V8.22679M12.8261 8.2227V8.22679M12.8261 8.22679V8.23089M12.8261 8.22679V8.23089M12.8261 8.23089V8.235M12.8261 8.23089V8.235M12.8261 8.235V8.23913M12.8261 8.235V8.23913M12.8261 8.23913V8.24327M12.8261 8.23913V8.24327M12.8261 8.24327V8.24743M12.8261 8.24327V8.24743M12.8261 8.24743V8.25159M12.8261 8.24743V8.25159M12.8261 8.25159V8.25577M12.8261 8.25159V8.25577M12.8261 8.25577V8.25996M12.8261 8.25577V8.25996M12.8261 8.25996V8.26417M12.8261 8.25996V8.26417M12.8261 8.26417V8.26838M12.8261 8.26417V8.26838M12.8261 8.26838V8.27261M12.8261 8.26838V8.27261M12.8261 8.27261V8.27685M12.8261 8.27261V8.27685M12.8261 8.27685V8.2811M12.8261 8.27685V8.2811M12.8261 8.2811V8.28536M12.8261 8.2811V8.28536M12.8261 8.28536V8.28963M12.8261 8.28536V8.28963M12.8261 8.28963V8.29392M12.8261 8.28963V8.29392M12.8261 8.29392V8.29821M12.8261 8.29392V8.29821M12.8261 8.29821V8.30252M12.8261 8.29821V8.30252M12.8261 8.30252V8.30684M12.8261 8.30252V8.30684M12.8261 8.30684V8.31117M12.8261 8.30684V8.31117M12.8261 8.31117V8.31551M12.8261 8.31117V8.31551M12.8261 8.31551V8.31987M12.8261 8.31551V8.31987M12.8261 8.31987V8.32423M12.8261 8.31987V8.32423M12.8261 8.32423V8.3286M12.8261 8.32423V8.3286M12.8261 8.3286V8.33299M12.8261 8.3286V8.33299M12.8261 8.33299V8.33739M12.8261 8.33299V8.33739M12.8261 8.33739V8.34179M12.8261 8.33739V8.34179M12.8261 8.34179V8.34621M12.8261 8.34179V8.34621M12.8261 8.34621V8.35063M12.8261 8.34621V8.35063M12.8261 8.35063V8.35507M12.8261 8.35063V8.35507M12.8261 8.35507V8.35952M12.8261 8.35507V8.35952M12.8261 8.35952V8.36398M12.8261 8.35952V8.36398M12.8261 8.36398V8.36844M12.8261 8.36398V8.36844M12.8261 8.36844V8.37292M12.8261 8.36844V8.37292M12.8261 8.37292V8.37741M12.8261 8.37292V8.37741M12.8261 8.37741V8.3819M12.8261 8.37741V8.3819M12.8261 8.3819V8.38641M12.8261 8.3819V8.38641M12.8261 8.38641V8.39092M12.8261 8.38641V8.39092M12.8261 8.39092V8.39545M12.8261 8.39092V8.39545M12.8261 8.39545V8.39998M12.8261 8.39545V8.39998M12.8261 8.39998V8.40453M12.8261 8.39998V8.40453M12.8261 8.40453V8.40908M12.8261 8.40453V8.40908M12.8261 8.40908V8.41364M12.8261 8.40908V8.41364M12.8261 8.41364V8.41821M12.8261 8.41364V8.41821M12.8261 8.41821V8.42279M12.8261 8.41821V8.42279M12.8261 8.42279V8.42738M12.8261 8.42279V8.42738M12.8261 8.42738V8.43197M12.8261 8.42738V8.43197M12.8261 8.43197V8.43658M12.8261 8.43197V8.43658M12.8261 8.43658V8.44119M12.8261 8.43658V8.44119M12.8261 8.44119V8.44581M12.8261 8.44119V8.44581M12.8261 8.44581V8.45044M12.8261 8.44581V8.45044M12.8261 8.45044V8.45508M12.8261 8.45044V8.45508M12.8261 8.45508V8.45973M12.8261 8.45508V8.45973M12.8261 8.45973V8.46438M12.8261 8.45973V8.46438M12.8261 8.46438V8.46904M12.8261 8.46438V8.46904M12.8261 8.46904V8.47371M12.8261 8.46904V8.47371M12.8261 8.47371V8.47839M12.8261 8.47371V8.47839M12.8261 8.47839V8.48308M12.8261 8.47839V8.48308M12.8261 8.48308V8.48777M12.8261 8.48308V8.48777M12.8261 8.48777V8.49247M12.8261 8.48777V8.49247M12.8261 8.49247V8.49718M12.8261 8.49247V8.49718M12.8261 8.49718V8.50189M12.8261 8.49718V8.50189M12.8261 8.50189V8.50661M12.8261 8.50189V8.50661M12.8261 8.50661V8.51134M12.8261 8.50661V8.51134M12.8261 8.51134V8.51608M12.8261 8.51134V8.51608M12.8261 8.51608V8.52082M12.8261 8.51608V8.52082M12.8261 8.52082V8.52557M12.8261 8.52082V8.52557M12.8261 8.52557V8.53033M12.8261 8.52557V8.53033M12.8261 8.53033V8.53509M12.8261 8.53033V8.53509M12.8261 8.53509V8.53986M12.8261 8.53509V8.53986M12.8261 8.53986V8.54463M12.8261 8.53986V8.54463M12.8261 8.54463V8.54941M12.8261 8.54463V8.54941M12.8261 8.54941V8.5542M12.8261 8.54941V8.5542M12.8261 8.5542V8.559M12.8261 8.5542V8.559M12.8261 8.559V8.5638M12.8261 8.559V8.5638M12.8261 8.5638V8.5686M12.8261 8.5638V8.5686M12.8261 8.5686V8.57342M12.8261 8.5686V8.57342M12.8261 8.57342V8.57823M12.8261 8.57342V8.57823M12.8261 8.57823V8.58306M12.8261 8.57823V8.58306M12.8261 8.58306V8.58789M12.8261 8.58306V8.58789M12.8261 8.58789V8.59272M12.8261 8.58789V8.59272M12.8261 8.59272V8.59756M12.8261 8.59272V8.59756M12.8261 8.59756V8.60241M12.8261 8.59756V8.60241M12.8261 8.60241V8.60726M12.8261 8.60241V8.60726M12.8261 8.60726V8.61211M12.8261 8.60726V8.61211M12.8261 8.61211V8.61697M12.8261 8.61211V8.61697M12.8261 8.61697V8.62184M12.8261 8.61697V8.62184M12.8261 8.62184V8.62671M12.8261 8.62184V8.62671M12.8261 8.62671V8.63158M12.8261 8.62671V8.63158M12.8261 8.63158V8.63646M12.8261 8.63158V8.63646M12.8261 8.63646V8.64135M12.8261 8.63646V8.64135M12.8261 8.64135V8.64623M12.8261 8.64135V8.64623M12.8261 8.64623V8.65113M12.8261 8.64623V8.65113M12.8261 8.65113V8.65602M12.8261 8.65113V8.65602M12.8261 8.65602V8.66092M12.8261 8.65602V8.66092M12.8261 8.66092V8.66583M12.8261 8.66092V8.66583M12.8261 8.66583V8.67074M12.8261 8.66583V8.67074M12.8261 8.67074V8.67565M12.8261 8.67074V8.67565M12.8261 8.67565V8.68057M12.8261 8.67565V8.68057M12.8261 8.68057V8.68549M12.8261 8.68057V8.68549M12.8261 8.68549V8.69041M12.8261 8.68549V8.69041M12.8261 8.69041V8.69534M12.8261 8.69041V8.69534M12.8261 8.69534V8.70027M12.8261 8.69534V8.70027M12.8261 8.70027V8.70521M12.8261 8.70027V8.70521M12.8261 8.70521V8.71014M12.8261 8.70521V8.71014M12.8261 8.71014V8.71509M12.8261 8.71014V8.71509M12.8261 8.71509V8.72003M12.8261 8.71509V8.72003M12.8261 8.72003V8.72498M12.8261 8.72003V8.72498M12.8261 8.72498V8.72993M12.8261 8.72498V8.72993M12.8261 8.72993V8.73488M12.8261 8.72993V8.73488M12.8261 8.73488V8.73983M12.8261 8.73488V8.73983M12.8261 8.73983V8.74479M12.8261 8.73983V8.74479M12.8261 8.74479V8.74975M12.8261 8.74479V8.74975M12.8261 8.74975V8.75471M12.8261 8.74975V8.75471M12.8261 8.75471V8.75968M12.8261 8.75471V8.75968M12.8261 8.75968V8.76465M12.8261 8.75968V8.76465M12.8261 8.76465V8.76961M12.8261 8.76465V8.76961M12.8261 8.76961V8.77459M12.8261 8.76961V8.77459M12.8261 8.77459V8.77956M12.8261 8.77459V8.77956M12.8261 8.77956V8.78453M12.8261 8.77956V8.78453M12.8261 8.78453V8.78951M12.8261 8.78453V8.78951M12.8261 8.78951V8.79449M12.8261 8.78951V8.79449M12.8261 8.79449V8.79947M12.8261 8.79449V8.79947M12.8261 8.79947V8.80445M12.8261 8.79947V8.80445M12.8261 8.80445V8.80943M12.8261 8.80445V8.80943M12.8261 8.80943V8.81442M12.8261 8.80943V8.81442M12.8261 8.81442V8.8194M12.8261 8.81442V8.8194M12.8261 8.8194V8.82439M12.8261 8.8194V8.82439M12.8261 8.82439V8.82937M12.8261 8.82439V8.82937M12.8261 8.82937V8.83436M12.8261 8.82937V8.83436M12.8261 8.83436V8.83935M12.8261 8.83436V8.83935M12.8261 8.83935V8.84434M12.8261 8.83935V8.84434M12.8261 8.84434V8.84933M12.8261 8.84434V8.84933M12.8261 8.84933V8.85432M12.8261 8.84933V8.85432M12.8261 8.85432V8.85931M12.8261 8.85432V8.85931M12.8261 8.85931V8.86431M12.8261 8.85931V8.86431M12.8261 8.86431V8.8693M12.8261 8.86431V8.8693M12.8261 8.8693V8.87429M12.8261 8.8693V8.87429M12.8261 8.87429V8.87928M12.8261 8.87429V8.87928M12.8261 8.87928V8.88427M12.8261 8.87928V8.88427M12.8261 8.88427V8.88927M12.8261 8.88427V8.88927M12.8261 8.88927V8.89426M12.8261 8.88927V8.89426M12.8261 8.89426V8.89925M12.8261 8.89426V8.89925M12.8261 8.89925V8.90424M12.8261 8.89925V8.90424M12.8261 8.90424V8.90923M12.8261 8.90424V8.90923M12.8261 8.90923V8.91422M12.8261 8.90923V8.91422M12.8261 8.91422V8.91921M12.8261 8.91422V8.91921M12.8261 8.91921V8.9242M12.8261 8.91921V8.9242M12.8261 8.9242V8.92918M12.8261 8.9242V8.92918M12.8261 8.92918V8.93417M12.8261 8.92918V8.93417M12.8261 8.93417V8.93916M12.8261 8.93417V8.93916M12.8261 8.93916V8.94414M12.8261 8.93916V8.94414M12.8261 8.94414V8.94912M12.8261 8.94414V8.94912M12.8261 8.94912V8.95411M12.8261 8.94912V8.95411M12.8261 8.95411V8.95909M12.8261 8.95411V8.95909M12.8261 8.95909V8.96406M12.8261 8.95909V8.96406M12.8261 8.96406V8.96904M12.8261 8.96406V8.96904M12.8261 8.96904V8.97402M12.8261 8.96904V8.97402M12.8261 8.97402V8.97899M12.8261 8.97402V8.97899M12.8261 8.97899V8.98396M12.8261 8.97899V8.98396M12.8261 8.98396V8.98893M12.8261 8.98396V8.98893M12.8261 8.98893V8.9939M12.8261 8.98893V8.9939M12.8261 8.9939V8.99887M12.8261 8.9939V8.99887M12.8261 8.99887V9.00383M12.8261 8.99887V9.00383M12.8261 9.00383V9.00879M12.8261 9.00383V9.00879M12.8261 9.00879V9.01375M12.8261 9.00879V9.01375M12.8261 9.01375V9.0187M12.8261 9.01375V9.0187M12.8261 9.0187V9.02366M12.8261 9.0187V9.02366M12.8261 9.02366V9.02861M12.8261 9.02366V9.02861M12.8261 9.02861V9.03356M12.8261 9.02861V9.03356M12.8261 9.03356V9.0385M12.8261 9.03356V9.0385M12.8261 9.0385V9.04344M12.8261 9.0385V9.04344M12.8261 9.04344V9.04838M12.8261 9.04344V9.04838M12.8261 9.04838V9.05332M12.8261 9.04838V9.05332M12.8261 9.05332V9.05825M12.8261 9.05332V9.05825M12.8261 9.05825V9.06318M12.8261 9.05825V9.06318M12.8261 9.06318V9.0681M12.8261 9.06318V9.0681M12.8261 9.0681V9.07302M12.8261 9.0681V9.07302M12.8261 9.07302V9.07794M12.8261 9.07302V9.07794M12.8261 9.07794V9.08286M12.8261 9.07794V9.08286M12.8261 9.08286V9.08777M12.8261 9.08286V9.08777M12.8261 9.08777V9.09267M12.8261 9.08777V9.09267M12.8261 9.09267V9.09758M12.8261 9.09267V9.09758M12.8261 9.09758V9.10247M12.8261 9.09758V9.10247M12.8261 9.10247V9.10737M12.8261 9.10247V9.10737M12.8261 9.10737V9.11226M12.8261 9.10737V9.11226M12.8261 9.11226V9.11714M12.8261 9.11226V9.11714M12.8261 9.11714V9.12202M12.8261 9.11714V9.12202M12.8261 9.12202V9.1269M12.8261 9.12202V9.1269M12.8261 9.1269V9.13177M12.8261 9.1269V9.13177M12.8261 9.13177V9.13664M12.8261 9.13177V9.13664M12.8261 9.13664V9.1415M12.8261 9.13664V9.1415M12.8261 9.1415V9.14636M12.8261 9.1415V9.14636M12.8261 9.14636V9.15121M12.8261 9.14636V9.15121M12.8261 9.15121V9.15606M12.8261 9.15121V9.15606M12.8261 9.15606V9.1609M12.8261 9.15606V9.1609M12.8261 9.1609V9.16573M12.8261 9.1609V9.16573M12.8261 9.16573V9.17057M12.8261 9.16573V9.17057M12.8261 9.17057V9.17539M12.8261 9.17057V9.17539M12.8261 9.17539V9.18021M12.8261 9.17539V9.18021M12.8261 9.18021V9.18502M12.8261 9.18021V9.18502M12.8261 9.18502V9.18983M12.8261 9.18502V9.18983M12.8261 9.18983V9.19463M12.8261 9.18983V9.19463M12.8261 9.19463V9.19943M12.8261 9.19463V9.19943M12.8261 9.19943V9.20422M12.8261 9.19943V9.20422M12.8261 9.20422V9.209M12.8261 9.20422V9.209M12.8261 9.209V9.21378M12.8261 9.209V9.21378M12.8261 9.21378V9.21855M12.8261 9.21378V9.21855M12.8261 9.21855V9.22332M12.8261 9.21855V9.22332M12.8261 9.22332V9.22808M12.8261 9.22332V9.22808M12.8261 9.22808V9.23283M12.8261 9.22808V9.23283M12.8261 9.23283V9.23757M12.8261 9.23283V9.23757M12.8261 9.23757V9.24231M12.8261 9.23757V9.24231M12.8261 9.24231V9.24704M12.8261 9.24231V9.24704M12.8261 9.24704V9.25176M12.8261 9.24704V9.25176M12.8261 9.25176V9.25648M12.8261 9.25176V9.25648M12.8261 9.25648V9.26119M12.8261 9.25648V9.26119M12.8261 9.26119V9.26589M12.8261 9.26119V9.26589M12.8261 9.26589V9.27059M12.8261 9.26589V9.27059M12.8261 9.27059V9.27528M12.8261 9.27059V9.27528M12.8261 9.27528V9.27996M12.8261 9.27528V9.27996M12.8261 9.27996V9.28463M12.8261 9.27996V9.28463M12.8261 9.28463V9.28929M12.8261 9.28463V9.28929M12.8261 9.28929V9.29395M12.8261 9.28929V9.29395M12.8261 9.29395V9.2986M12.8261 9.29395V9.2986M12.8261 9.2986V9.30324M12.8261 9.2986V9.30324M12.8261 9.30324V9.30787M12.8261 9.30324V9.30787M12.8261 9.30787V9.3125M12.8261 9.30787V9.3125M12.8261 9.3125V9.31711M12.8261 9.3125V9.31711M12.8261 9.31711V9.32172M12.8261 9.31711V9.32172M12.8261 9.32172V9.32632M12.8261 9.32172V9.32632M12.8261 9.32632V9.33091M12.8261 9.32632V9.33091M12.8261 9.33091V9.33549M12.8261 9.33091V9.33549M12.8261 9.33549V9.34006M12.8261 9.33549V9.34006M12.8261 9.34006V9.34463M12.8261 9.34006V9.34463M12.8261 9.34463V9.34918M12.8261 9.34463V9.34918M12.8261 9.34918V9.35373M12.8261 9.34918V9.35373M12.8261 9.35373V9.35827M12.8261 9.35373V9.35827M12.8261 9.35827V9.36279M12.8261 9.35827V9.36279M12.8261 9.36279V9.36731M12.8261 9.36279V9.36731M12.8261 9.36731V9.37182M12.8261 9.36731V9.37182M12.8261 9.37182V9.37632M12.8261 9.37182V9.37632M12.8261 9.37632V9.38081M12.8261 9.37632V9.38081M12.8261 9.38081V9.38529M12.8261 9.38081V9.38529M12.8261 9.38529V9.38976M12.8261 9.38529V9.38976M12.8261 9.38976V9.39422M12.8261 9.38976V9.39422M12.8261 9.39422V9.39867M12.8261 9.39422V9.39867M12.8261 9.39867V9.40311M12.8261 9.39867V9.40311M12.8261 9.40311V9.40754M12.8261 9.40311V9.40754M12.8261 9.40754V9.41196M12.8261 9.40754V9.41196M12.8261 9.41196V9.41637M12.8261 9.41196V9.41637M12.8261 9.41637V9.42077M12.8261 9.41637V9.42077M12.8261 9.42077V9.42516M12.8261 9.42077V9.42516M12.8261 9.42516V9.42953M12.8261 9.42516V9.42953M12.8261 9.42953V9.4339M12.8261 9.42953V9.4339M12.8261 9.4339V9.43826M12.8261 9.4339V9.43826M12.8261 9.43826V9.4426M12.8261 9.43826V9.4426M12.8261 9.4426V9.44694M12.8261 9.4426V9.44694M12.8261 9.44694V9.45126M12.8261 9.44694V9.45126M12.8261 9.45126V9.45557M12.8261 9.45126V9.45557M12.8261 9.45557V9.45987M12.8261 9.45557V9.45987M12.8261 9.45987V9.46416M12.8261 9.45987V9.46416M12.8261 9.46416V9.46844M12.8261 9.46416V9.46844M12.8261 9.46844V9.4727M12.8261 9.46844V9.4727M12.8261 9.4727V9.47696M12.8261 9.4727V9.47696M12.8261 9.47696V9.4812M12.8261 9.47696V9.4812M12.8261 9.4812V9.48543M12.8261 9.4812V9.48543M12.8261 9.48543V9.48965M12.8261 9.48543V9.48965M12.8261 9.48965V9.49385M12.8261 9.48965V9.49385M12.8261 9.49385V9.49805M12.8261 9.49385V9.49805M12.8261 9.49805V9.50223M12.8261 9.49805V9.50223M12.8261 9.50223V9.5064M12.8261 9.50223V9.5064M12.8261 9.5064V9.51056M12.8261 9.5064V9.51056M12.8261 9.51056V9.5147M12.8261 9.51056V9.5147M12.8261 9.5147V9.51884M12.8261 9.5147V9.51884M12.8261 9.51884V9.52296M12.8261 9.51884V9.52296M12.8261 9.52296V9.52706M12.8261 9.52296V9.52706M12.8261 9.52706V9.53116M12.8261 9.52706V9.53116M12.8261 9.53116V9.53524M12.8261 9.53116V9.53524M12.8261 9.53524V9.53931M12.8261 9.53524V9.53931M12.8261 9.53931V9.54336M12.8261 9.53931V9.54336M12.8261 9.54336V9.5474M12.8261 9.54336V9.5474M12.8261 9.5474V9.55143M12.8261 9.5474V9.55143M12.8261 9.55143V9.55544M12.8261 9.55143V9.55544M12.8261 9.55544V9.55944M12.8261 9.55544V9.55944M12.8261 9.55944V9.56343M12.8261 9.55944V9.56343M12.8261 9.56343V9.56741M12.8261 9.56343V9.56741M12.8261 9.56741V9.57137M12.8261 9.56741V9.57137M12.8261 9.57137V9.57531M12.8261 9.57137V9.57531M12.8261 9.57531V9.57924M12.8261 9.57531V9.57924M12.8261 9.57924V9.58316M12.8261 9.57924V9.58316M12.8261 9.58316V9.58707M12.8261 9.58316V9.58707M12.8261 9.58707V9.59096M12.8261 9.58707V9.59096M12.8261 9.59096V9.59483M12.8261 9.59096V9.59483M12.8261 9.59483V9.59869M12.8261 9.59483V9.59869M12.8261 9.59869V9.60254M12.8261 9.59869V9.60254M12.8261 9.60254V9.60637M12.8261 9.60254V9.60637M12.8261 9.60637V9.61018M12.8261 9.60637V9.61018M12.8261 9.61018V9.61399M12.8261 9.61018V9.61399M12.8261 9.61399V9.61777M12.8261 9.61399V9.61777M12.8261 9.61777V9.62154M12.8261 9.61777V9.62154M12.8261 9.62154V9.6253M12.8261 9.62154V9.6253M12.8261 9.6253V9.62904M12.8261 9.6253V9.62904M12.8261 9.62904V9.63277M12.8261 9.62904V9.63277M12.8261 9.63277V9.63648M12.8261 9.63277V9.63648M12.8261 9.63648V9.64017M12.8261 9.63648V9.64017M12.8261 9.64017V9.64385M12.8261 9.64017V9.64385M12.8261 9.64385V9.64752M12.8261 9.64385V9.64752M12.8261 9.64752V9.65117M12.8261 9.64752V9.65117M12.8261 9.65117V9.6548M12.8261 9.65117V9.6548M12.8261 9.6548V9.65841M12.8261 9.6548V9.65841M12.8261 9.65841V9.66201M12.8261 9.65841V9.66201M12.8261 9.66201V9.6656M12.8261 9.66201V9.6656M12.8261 9.6656V9.66917M12.8261 9.6656V9.66917M12.8261 9.66917V9.67272M12.8261 9.66917V9.67272M12.8261 9.67272V9.67625M12.8261 9.67272V9.67625M12.8261 9.67625V9.67977M12.8261 9.67625V9.67977M12.8261 9.67977V9.68327M12.8261 9.67977V9.68327M12.8261 9.68327V9.68676M12.8261 9.68327V9.68676M12.8261 9.68676V9.69023M12.8261 9.68676V9.69023M12.8261 9.69023V9.69368M12.8261 9.69023V9.69368M12.8261 9.69368V9.69711M12.8261 9.69368V9.69711M12.8261 9.69711V9.70053M12.8261 9.69711V9.70053M12.8261 9.70053V9.70393M12.8261 9.70053V9.70393M12.8261 9.70393V9.70731M12.8261 9.70393V9.70731M12.8261 9.70731V9.71068M12.8261 9.70731V9.71068M12.8261 9.71068V9.71403M12.8261 9.71068V9.71403M12.8261 9.71403V9.71736M12.8261 9.71403V9.71736M12.8261 9.71736V9.72067M12.8261 9.71736V9.72067M12.8261 9.72067V9.72397M12.8261 9.72067V9.72397M12.8261 9.72397V9.72724M12.8261 9.72397V9.72724M12.8261 9.72724V9.7305M12.8261 9.72724V9.7305M12.8261 9.7305V9.73375V9.7305Z" fill="#09C269" stroke="#ECFFF6" stroke-width="0.5"/>
</svg>
