<svg width="16" height="16" viewBox="0 0 16 16" fill="none" xmlns="http://www.w3.org/2000/svg">
<g clip-path="url(#clip0_572_1940)">
<rect width="16" height="16" rx="8" fill="black"/>
<path fill-rule="evenodd" clip-rule="evenodd" d="M11.1678 5.00114C11.6142 5.00114 12.0605 5.00114 12.475 5.00114H12.6663V2.73379C12.4432 2.73379 12.1881 2.66992 11.933 2.66992C11.4866 2.66992 11.0403 2.66992 10.5939 2.66992C9.92431 2.66992 9.25474 2.86153 8.71272 3.24474C8.10692 3.69183 7.69243 4.39439 7.59677 5.12888C7.533 5.41629 7.50112 5.73563 7.50112 6.02304C7.50112 6.53399 7.50112 7.04494 7.50112 7.5559V7.81137H5.33301V10.3342H7.46924V16.6892H10.1475V10.3023H12.2837L12.5388 7.77944H10.0518C10.0518 7.77944 10.0518 6.53399 10.0518 5.99111C10.1475 5.22468 10.5939 5.00114 11.1678 5.00114Z" fill="white"/>
</g>
<defs>
<clipPath id="clip0_572_1940">
<rect width="16" height="16" rx="8" fill="white"/>
</clipPath>
</defs>
</svg>
