<svg width="210" height="73" viewBox="0 0 210 73" fill="none" xmlns="http://www.w3.org/2000/svg">
<circle cx="178.802" cy="20.8274" r="6.67969" transform="rotate(94.578 178.802 20.8274)" fill="#06C269"/>
<circle cx="202.772" cy="22.7468" r="6.67969" transform="rotate(94.578 202.772 22.7468)" fill="#06C269"/>
<circle cx="154.831" cy="18.9079" r="6.67969" transform="rotate(94.578 154.831 18.9079)" fill="#06C269"/>
<circle cx="130.861" cy="16.989" r="6.67969" transform="rotate(94.578 130.861 16.989)" fill="#06C269"/>
<circle cx="106.891" cy="15.0696" r="6.67969" transform="rotate(94.578 106.891 15.0696)" fill="#06C269"/>
<circle cx="82.9213" cy="13.1501" r="6.67969" transform="rotate(94.578 82.9213 13.1501)" fill="#06C269"/>
<circle cx="58.951" cy="11.2307" r="6.67969" transform="rotate(94.578 58.951 11.2307)" fill="#06C269"/>
<circle cx="34.9808" cy="9.31126" r="6.67969" transform="rotate(94.578 34.9808 9.31126)" fill="#06C269"/>
<circle cx="11.0106" cy="7.39183" r="6.67969" transform="rotate(94.578 11.0106 7.39183)" fill="#06C269"/>
<circle cx="177.097" cy="42.1184" r="6.67969" transform="rotate(94.578 177.097 42.1184)" fill="#06C269"/>
<circle cx="201.067" cy="44.0378" r="6.67969" transform="rotate(94.578 201.067 44.0378)" fill="#06C269"/>
<circle cx="153.126" cy="40.199" r="6.67969" transform="rotate(94.578 153.126 40.199)" fill="#06C269"/>
<circle cx="129.156" cy="38.28" r="6.67969" transform="rotate(94.578 129.156 38.28)" fill="#06C269"/>
<circle cx="105.186" cy="36.3606" r="6.67969" transform="rotate(94.578 105.186 36.3606)" fill="#06C269"/>
<circle cx="81.2162" cy="34.4411" r="6.67969" transform="rotate(94.578 81.2162 34.4411)" fill="#06C269"/>
<circle cx="57.246" cy="32.5217" r="6.67969" transform="rotate(94.578 57.246 32.5217)" fill="#06C269"/>
<circle cx="33.2758" cy="30.6023" r="6.67969" transform="rotate(94.578 33.2758 30.6023)" fill="#06C269"/>
<circle cx="9.30554" cy="28.6828" r="6.67969" transform="rotate(94.578 9.30554 28.6828)" fill="#06C269"/>
<circle cx="175.392" cy="63.4099" r="6.67969" transform="rotate(94.578 175.392 63.4099)" fill="#06C269"/>
<circle cx="199.362" cy="65.3293" r="6.67969" transform="rotate(94.578 199.362 65.3293)" fill="#06C269"/>
<circle cx="151.422" cy="61.4905" r="6.67969" transform="rotate(94.578 151.422 61.4905)" fill="#06C269"/>
<circle cx="127.452" cy="59.5715" r="6.67969" transform="rotate(94.578 127.452 59.5715)" fill="#06C269"/>
<circle cx="103.481" cy="57.6521" r="6.67969" transform="rotate(94.578 103.481 57.6521)" fill="#06C269"/>
<circle cx="79.5116" cy="55.7326" r="6.67969" transform="rotate(94.578 79.5116 55.7326)" fill="#06C269"/>
<circle cx="55.5414" cy="53.8132" r="6.67969" transform="rotate(94.578 55.5414 53.8132)" fill="#06C269"/>
<circle cx="31.5712" cy="51.8938" r="6.67969" transform="rotate(94.578 31.5712 51.8938)" fill="#06C269"/>
<circle cx="8.9325" cy="50.0813" r="6.67969" transform="rotate(94.578 8.9325 50.0813)" fill="#06C269"/>
</svg>
