<svg width="16" height="16" viewBox="0 0 16 16" fill="none" xmlns="http://www.w3.org/2000/svg">
<rect width="16" height="16" rx="3" fill="black"/>
<path d="M8 4C5.79661 4 4 5.79661 4 8C4 10.2034 5.79661 12 8 12C10.2034 12 12 10.2034 12 8C12 5.79661 10.2034 4 8 4ZM8 10.6441C6.50847 10.6441 5.32203 9.45763 5.32203 7.9661C5.32203 6.47458 6.50847 5.28813 8 5.28813C9.49152 5.28813 10.678 6.47458 10.678 7.9661V8C10.678 9.45762 9.49152 10.678 8 10.678V10.6441Z" fill="white"/>
<path d="M13 4.00568C13.5523 4.00568 14 3.55735 14 3.00431C14 2.45126 13.5523 2.00293 13 2.00293C12.4477 2.00293 12 2.45126 12 3.00431C12 3.55735 12.4477 4.00568 13 4.00568Z" fill="white"/>
</svg>
