<svg width="24" height="24" viewBox="0 0 24 24" fill="none" xmlns="http://www.w3.org/2000/svg">
<rect width="24" height="24" rx="5" fill="#ECFFF6"/>
<path d="M16.3071 4.5H7.72616C5.96341 4.5 4.53326 5.89068 4.5 7.61247V16.387C4.53326 18.1419 5.96341 19.5325 7.72616 19.4994H16.2738C18.0366 19.5325 19.4667 18.1087 19.5 16.387V7.61247C19.4667 5.89068 18.0366 4.5 16.3071 4.5ZM18.2029 16.4201C18.2029 17.4465 17.3714 18.2743 16.3404 18.2743C16.3071 18.2743 16.3071 18.2743 16.2738 18.2743H7.72616C6.69512 18.3074 5.83038 17.5127 5.79712 16.4863C5.79712 16.4532 5.79712 16.4532 5.79712 16.4201V7.64557C5.79712 6.61912 6.6286 5.79134 7.65964 5.79134C7.6929 5.79134 7.6929 5.79134 7.72616 5.79134H16.2738C17.3049 5.75823 18.1696 6.5529 18.2029 7.57935C18.2029 7.61246 18.2029 7.61246 18.2029 7.64557V16.4201Z" fill="#09C269"/>
<path d="M12 8.25C9.93432 8.25 8.25 9.93432 8.25 12C8.25 14.0657 9.93432 15.75 12 15.75C14.0657 15.75 15.75 14.0657 15.75 12C15.75 9.93432 14.0657 8.25 12 8.25ZM12 14.4788C10.6017 14.4788 9.4894 13.3665 9.4894 11.9682C9.4894 10.5699 10.6017 9.45762 12 9.45762C13.3983 9.45762 14.5106 10.5699 14.5106 11.9682V12C14.5106 13.3665 13.3983 14.5106 12 14.5106V14.4788Z" fill="#09C269"/>
<path d="M16.5 8.25C16.9142 8.25 17.25 7.91422 17.25 7.5C17.25 7.08579 16.9142 6.75 16.5 6.75C16.0858 6.75 15.75 7.08579 15.75 7.5C15.75 7.91422 16.0858 8.25 16.5 8.25Z" fill="#09C269"/>
</svg>
