<svg width="24" height="24" viewBox="0 0 24 24" fill="none" xmlns="http://www.w3.org/2000/svg">
<rect y="0.0163574" width="24" height="23.9671" rx="5" fill="#E7FDFF"/>
<path d="M16.3071 4.51025H7.72616C5.96341 4.51025 4.53326 5.89902 4.5 7.61845V16.3809C4.53326 18.1334 5.96341 19.5222 7.72616 19.4891H16.2738C18.0366 19.5222 19.4667 18.1003 19.5 16.3809V7.61845C19.4667 5.89902 18.0366 4.51025 16.3071 4.51025ZM18.2029 16.414C18.2029 17.439 17.3714 18.2657 16.3404 18.2657C16.3071 18.2657 16.3071 18.2657 16.2738 18.2657H7.72616C6.69512 18.2987 5.83038 17.5051 5.79712 16.4801C5.79712 16.447 5.79712 16.447 5.79712 16.414V7.65151C5.79712 6.62647 6.6286 5.79983 7.65964 5.79983C7.6929 5.79983 7.6929 5.79983 7.72616 5.79983H16.2738C17.3049 5.76676 18.1696 6.56034 18.2029 7.58538C18.2029 7.61845 18.2029 7.61845 18.2029 7.65151V16.414Z" fill="#4E48E0"/>
<path d="M12 8.25513C9.93432 8.25513 8.25 9.93714 8.25 12C8.25 14.0628 9.93432 15.7448 12 15.7448C14.0657 15.7448 15.75 14.0628 15.75 12C15.75 9.93714 14.0657 8.25513 12 8.25513ZM12 14.4754C10.6017 14.4754 9.4894 13.3646 9.4894 11.9682C9.4894 10.5719 10.6017 9.46109 12 9.46109C13.3983 9.46109 14.5106 10.5719 14.5106 11.9682V12C14.5106 13.3646 13.3983 14.5071 12 14.5071V14.4754Z" fill="#4E48E0"/>
<path d="M16.5 8.25502C16.9142 8.25502 17.25 7.9197 17.25 7.50605C17.25 7.09241 16.9142 6.75708 16.5 6.75708C16.0858 6.75708 15.75 7.09241 15.75 7.50605C15.75 7.9197 16.0858 8.25502 16.5 8.25502Z" fill="#4E48E0"/>
</svg>
