<svg width="144" height="44" viewBox="0 0 144 44" fill="none" xmlns="http://www.w3.org/2000/svg">
<circle cx="122.107" cy="4.64544" r="4.64544" transform="rotate(90 122.107 4.64544)" fill="#06C269"/>
<circle cx="138.831" cy="4.64544" r="4.64544" transform="rotate(90 138.831 4.64544)" fill="#06C269"/>
<circle cx="105.384" cy="4.64544" r="4.64544" transform="rotate(90 105.384 4.64544)" fill="#06C269"/>
<circle cx="88.6602" cy="4.64544" r="4.64544" transform="rotate(90 88.6602 4.64544)" fill="#06C269"/>
<circle cx="71.9366" cy="4.64544" r="4.64544" transform="rotate(90 71.9366 4.64544)" fill="#06C269"/>
<circle cx="55.213" cy="4.64544" r="4.64544" transform="rotate(90 55.213 4.64544)" fill="#06C269"/>
<circle cx="38.4893" cy="4.64544" r="4.64544" transform="rotate(90 38.4893 4.64544)" fill="#06C269"/>
<circle cx="21.7657" cy="4.64544" r="4.64544" transform="rotate(90 21.7657 4.64544)" fill="#06C269"/>
<circle cx="5.04206" cy="4.64544" r="4.64544" transform="rotate(90 5.04206 4.64544)" fill="#06C269"/>
<circle cx="122.107" cy="21.9365" r="4.64544" transform="rotate(90 122.107 21.9365)" fill="#06C269"/>
<circle cx="138.831" cy="21.9365" r="4.64544" transform="rotate(90 138.831 21.9365)" fill="#06C269"/>
<circle cx="105.384" cy="21.9365" r="4.64544" transform="rotate(90 105.384 21.9365)" fill="#06C269"/>
<circle cx="88.6602" cy="21.9365" r="4.64544" transform="rotate(90 88.6602 21.9365)" fill="#06C269"/>
<circle cx="71.9366" cy="21.9365" r="4.64544" transform="rotate(90 71.9366 21.9365)" fill="#06C269"/>
<circle cx="55.213" cy="21.9365" r="4.64544" transform="rotate(90 55.213 21.9365)" fill="#06C269"/>
<circle cx="38.4893" cy="21.9365" r="4.64544" transform="rotate(90 38.4893 21.9365)" fill="#06C269"/>
<circle cx="21.7657" cy="21.9365" r="4.64544" transform="rotate(90 21.7657 21.9365)" fill="#06C269"/>
<circle cx="5.04206" cy="21.9365" r="4.64544" transform="rotate(90 5.04206 21.9365)" fill="#06C269"/>
<circle cx="122.107" cy="39.227" r="4.64544" transform="rotate(90 122.107 39.227)" fill="#06C269"/>
<circle cx="138.831" cy="39.227" r="4.64544" transform="rotate(90 138.831 39.227)" fill="#06C269"/>
<circle cx="105.384" cy="39.227" r="4.64544" transform="rotate(90 105.384 39.227)" fill="#06C269"/>
<circle cx="88.6602" cy="39.227" r="4.64544" transform="rotate(90 88.6602 39.227)" fill="#06C269"/>
<circle cx="71.9366" cy="39.227" r="4.64544" transform="rotate(90 71.9366 39.227)" fill="#06C269"/>
<circle cx="55.213" cy="39.227" r="4.64544" transform="rotate(90 55.213 39.227)" fill="#06C269"/>
<circle cx="38.4893" cy="39.227" r="4.64544" transform="rotate(90 38.4893 39.227)" fill="#06C269"/>
<circle cx="21.7657" cy="39.227" r="4.64544" transform="rotate(90 21.7657 39.227)" fill="#06C269"/>
<circle cx="5.97174" cy="39.227" r="4.64544" transform="rotate(90 5.97174 39.227)" fill="#06C269"/>
</svg>
