<svg width="32" height="32" viewBox="0 0 32 32" fill="none" xmlns="http://www.w3.org/2000/svg">
<path d="M5 16C5 22.0753 9.9247 27 16 27C22.0753 27 27 22.0753 27 16C27 9.9247 22.0753 5 16 5C9.9247 5 5 9.9247 5 16Z" stroke="black" stroke-width="1.3" stroke-linecap="round" stroke-linejoin="round"/>
<path d="M17.0999 5.05499C17.0999 5.05499 20.3999 9.39999 20.3999 16C20.3999 22.6 17.0999 26.945 17.0999 26.945M14.8999 26.945C14.8999 26.945 11.5999 22.6 11.5999 16C11.5999 9.39999 14.8999 5.05499 14.8999 5.05499M5.69287 19.85H26.3069M5.69287 12.15H26.3069" stroke="black" stroke-width="1.3" stroke-linecap="round" stroke-linejoin="round"/>
</svg>
