<svg width="171" height="30" viewBox="0 0 171 30" fill="none" xmlns="http://www.w3.org/2000/svg">
<g clip-path="url(#clip0_262_4)">
<path fill-rule="evenodd" clip-rule="evenodd" d="M29.5793 10.1664C29.4629 9.99688 29.2692 9.90994 29.0739 9.90994H17.9522L23.4982 1.04528C23.641 0.817634 23.649 0.50605 23.4756 0.256223C23.358 0.0865401 23.1623 0 22.9662 0H13.389C12.4275 0 11.529 0.515643 10.9904 1.37645L0.10623 18.7748C-0.0361578 19.0026 -0.0421489 19.3142 0.129396 19.5641C0.245622 19.7333 0.439334 19.8201 0.634842 19.8201H11.7509L6.20434 28.6869C6.10449 28.8468 6.07394 29.0481 6.11947 29.24C6.18957 29.5372 6.45277 29.7322 6.73655 29.7322H16.3081C17.2768 29.7322 18.1821 29.2126 18.7245 28.3454L24.0563 19.8201L29.6021 10.9554C29.7447 10.7278 29.7507 10.4158 29.5793 10.1664Z" fill="#4E48E0"/>
<path fill-rule="evenodd" clip-rule="evenodd" d="M24.0578 19.8181L18.7248 28.3452C18.1824 29.2126 17.2769 29.7321 16.3084 29.7321H6.73682C6.45305 29.7321 6.18984 29.5372 6.11974 29.24C6.07421 29.0481 6.10476 28.8469 6.20462 28.687L11.7522 19.8181H24.0578Z" fill="#4E48E0"/>
<path fill-rule="evenodd" clip-rule="evenodd" d="M17.9449 9.90991H29.0737C29.269 9.90991 29.4627 9.99685 29.5791 10.1661C29.7507 10.4158 29.7443 10.7275 29.6021 10.9554L24.0566 19.8201H11.7461L17.9449 9.90991Z" fill="#1C81C1"/>
<path fill-rule="evenodd" clip-rule="evenodd" d="M0.634792 19.8201C0.439483 19.8201 0.245772 19.7333 0.129545 19.5641C-0.0421989 19.3142 -0.0362078 19.0026 0.10638 18.775L10.9906 1.37645C11.529 0.515643 12.4276 0 13.389 0H22.9661C23.1622 0 23.3581 0.08674 23.4758 0.256223C23.6489 0.50605 23.6409 0.817634 23.4983 1.04548L11.752 19.8201H0.634792Z" fill="#5CC4CD"/>
<path fill-rule="evenodd" clip-rule="evenodd" d="M95.6953 16.3968H95.9818H101.668C101.876 16.3968 102.493 16.3998 102.493 16.3998C102.493 16.3998 102.493 16.3596 102.458 16.1971C102.335 15.6153 102.111 15.0829 101.721 14.6292C100.814 13.5755 99.2048 13.2162 97.8287 13.771C96.6478 14.2469 96.0038 15.1672 95.6953 16.3968ZM100.542 18.709C99.0057 18.709 97.47 18.7124 95.9341 18.705C95.7336 18.7038 95.6958 18.7458 95.7496 18.9428C96.1522 20.4124 97.3222 21.4205 98.8282 21.5842C100.522 21.7683 102.074 21.343 103.525 20.4874L103.784 20.3345L105.009 22.508C105.009 22.508 104.974 22.5276 104.845 22.6137C103.02 23.834 101.011 24.3621 98.8248 24.2344C97.849 24.1774 96.9106 23.9678 96.0296 23.5393C94.7267 22.9059 93.7677 21.9248 93.1942 20.5961C92.3966 18.7486 92.349 16.8613 93.0584 14.9808C93.9692 12.5654 96.1901 11.0619 98.8887 10.9789C100.28 10.9362 101.601 11.1944 102.786 11.9551C104.459 13.0293 105.252 14.6266 105.454 16.5599C105.52 17.1918 105.486 17.8214 105.431 18.4532C105.412 18.6824 105.406 18.713 105.406 18.713C105.406 18.713 102.07 18.709 100.542 18.709Z" fill="#3A3945"/>
<path fill-rule="evenodd" clip-rule="evenodd" d="M130.967 16.3968H131.254H136.94C137.148 16.3968 137.765 16.3998 137.765 16.3998C137.765 16.3998 137.765 16.3596 137.731 16.1971C137.607 15.6153 137.383 15.0829 136.993 14.6292C136.086 13.5755 134.477 13.2162 133.101 13.771C131.92 14.2469 131.276 15.1672 130.967 16.3968ZM135.814 18.709C134.278 18.709 132.742 18.7124 131.206 18.705C131.006 18.7038 130.968 18.7458 131.022 18.9428C131.424 20.4124 132.594 21.4205 134.1 21.5842C135.794 21.7683 137.346 21.343 138.797 20.4874L139.056 20.3345L140.281 22.508C140.281 22.508 140.246 22.5276 140.117 22.6137C138.292 23.834 136.283 24.3621 134.097 24.2344C133.121 24.1774 132.183 23.9678 131.302 23.5393C129.999 22.9059 129.04 21.9248 128.466 20.5961C127.669 18.7486 127.621 16.8613 128.331 14.9808C129.241 12.5654 131.462 11.0619 134.161 10.9789C135.552 10.9362 136.873 11.1944 138.058 11.9551C139.731 13.0293 140.524 14.6266 140.726 16.5599C140.792 17.1918 140.758 17.8214 140.703 18.4532C140.684 18.6824 140.678 18.713 140.678 18.713C140.678 18.713 137.342 18.709 135.814 18.709Z" fill="#3A3945"/>
<path fill-rule="evenodd" clip-rule="evenodd" d="M121.852 10.9769C123.248 11.0037 124.644 11.4931 125.775 12.6435C125.905 12.7755 125.95 12.8206 125.95 12.8206L124.367 14.7497C124.367 14.7497 124.343 14.7265 124.216 14.606C123.484 13.9145 122.627 13.4942 121.605 13.455C121.284 13.4428 120.972 13.4856 120.68 13.6253C119.89 14.0032 119.774 14.9314 120.446 15.4928C120.668 15.6784 120.929 15.7892 121.195 15.8933C122.152 16.2666 123.125 16.6022 124.046 17.0645C124.719 17.4025 125.323 17.8306 125.747 18.4687C126.538 19.6585 126.407 21.4508 125.454 22.5931C124.62 23.5916 123.514 24.0656 122.258 24.2173C120.464 24.434 118.816 24.0582 117.375 22.9228C117.006 22.6324 116.69 22.2905 116.4 21.9215C116.314 21.8122 116.29 21.7772 116.29 21.7772L118.01 19.9245C118.01 19.9245 118.031 19.9499 118.144 20.0858C118.836 20.9174 119.705 21.461 120.777 21.6525C121.39 21.7616 121.993 21.7391 122.556 21.4351C123.125 21.1279 123.372 20.5866 123.196 20.0538C123.099 19.7626 122.893 19.5588 122.646 19.3903C122.317 19.1652 121.945 19.0273 121.579 18.8786C120.796 18.5605 119.996 18.2836 119.233 17.9187C118.217 17.433 117.452 16.7125 117.171 15.5807C116.724 13.7758 117.657 12.0526 119.432 11.3678C120.152 11.0902 120.897 10.9785 121.852 10.9769Z" fill="#3A3945"/>
<path fill-rule="evenodd" clip-rule="evenodd" d="M71.1639 21.2954C69.1433 21.2954 67.4993 19.6503 67.4993 17.6279C67.4993 15.6057 69.1433 13.9606 71.1639 13.9606C73.1844 13.9606 74.8284 15.6057 74.8284 17.6279C74.8284 19.6503 73.1844 21.2954 71.1639 21.2954ZM75.1541 10.9753L74.8544 12.5106C73.9223 11.5467 72.5286 10.9861 71.1639 10.9861C67.5045 10.9861 64.5273 13.9656 64.5273 17.6279C64.5273 21.2904 67.5045 24.2699 71.1639 24.2699C72.5286 24.2699 73.8604 23.7249 74.8544 22.7456L75.1541 24.2759H77.8265V10.9753H75.1541Z" fill="#3A3945"/>
<path fill-rule="evenodd" clip-rule="evenodd" d="M164.001 21.2953C161.98 21.2953 160.336 19.6503 160.336 17.6279C160.336 15.6057 161.98 13.9606 164.001 13.9606C166.021 13.9606 167.665 15.6057 167.665 17.6279C167.665 19.6503 166.021 21.2953 164.001 21.2953ZM167.691 6.53656V12.5106C166.752 11.6476 165.366 10.9861 164.001 10.9861C160.341 10.9861 157.364 13.9656 157.364 17.6279C157.364 21.2904 160.341 24.2699 164.001 24.2699C165.366 24.2699 166.671 23.6421 167.691 22.7453L167.991 24.2759H170.663V6.53656H167.691Z" fill="#3A3945"/>
<path fill-rule="evenodd" clip-rule="evenodd" d="M81.084 24.2759H84.0562V11.6009H81.084V24.2759Z" fill="#3A3945"/>
<path fill-rule="evenodd" clip-rule="evenodd" d="M149.274 10.9852C148.173 10.9852 146.912 11.6837 146.255 12.5299L145.756 10.9744H143.283V16.8042V24.275H146.255H146.279V16.8042C146.279 15.2358 147.622 13.9597 149.274 13.9597C150.925 13.9597 152.269 15.2358 152.269 16.8042V24.275H155.265V16.8042C155.265 13.5958 152.577 10.9852 149.274 10.9852Z" fill="#3A3945"/>
<path fill-rule="evenodd" clip-rule="evenodd" d="M87.1528 24.2759H90.125V6.53674H87.1528V24.2759Z" fill="#3A3945"/>
<path fill-rule="evenodd" clip-rule="evenodd" d="M84.5108 8.13787C84.5108 7.06542 83.6417 6.19562 82.5701 6.19562C81.4983 6.19562 80.6294 7.06542 80.6294 8.13787C80.6294 9.21053 81.4983 10.0801 82.5701 10.0801C83.6417 10.0801 84.5108 9.21053 84.5108 8.13787Z" fill="#3A3945"/>
<path fill-rule="evenodd" clip-rule="evenodd" d="M113.474 10.9982C112.483 11.0771 111.582 11.6425 110.803 12.1932L110.503 10.9754H107.83V17.0874C107.803 17.322 107.788 17.5552 107.788 17.7853V24.1921H107.83V24.276H110.803V24.1921H110.845V17.7853C110.845 16.3725 112.051 14.1806 113.716 14.0481C114.129 14.0157 114.522 14.0663 115.074 14.2234L115.911 11.2808C115.302 11.1075 114.474 10.919 113.474 10.9982Z" fill="#3A3945"/>
<path fill-rule="evenodd" clip-rule="evenodd" d="M56.4219 10.9806C54.7007 10.9806 53.1524 11.7339 52.087 12.9273C51.0214 11.7339 49.4731 10.9806 47.7518 10.9806C44.5458 10.9806 41.9375 13.5912 41.9375 16.7996V24.2704H44.9097V16.7996C44.9097 15.2313 46.1846 13.9552 47.7518 13.9552C49.3191 13.9552 50.594 15.2313 50.594 16.7996V24.2704H50.6076H52.087H53.5662H53.5798V16.7996C53.5798 15.2313 54.8547 13.9552 56.4219 13.9552C57.9892 13.9552 59.2641 15.2313 59.2641 16.7996V24.2704H62.2363V16.7996C62.2363 13.5912 59.6279 10.9806 56.4219 10.9806Z" fill="#3A3945"/>
</g>
<defs>
<clipPath id="clip0_262_4">
<rect width="171" height="30" fill="white"/>
</clipPath>
</defs>
</svg>
