<svg width="32" height="32" viewBox="0 0 32 32" fill="none" xmlns="http://www.w3.org/2000/svg">
<g clip-path="url(#clip0_156_20)">
<path fill-rule="evenodd" clip-rule="evenodd" d="M9.06994 21.49C5.63994 18.06 5.63994 12.5 9.06994 9.07C12.4999 5.64 18.0599 5.64 21.4899 9.07C24.9199 12.5 24.9199 18.06 21.4899 21.49C18.0599 24.92 12.4999 24.92 9.06994 21.49ZM8.00994 8.01C3.99994 12.03 3.99994 18.54 8.00994 22.55C11.8299 26.37 17.8999 26.56 21.9399 23.11C21.9699 23.16 22.0099 23.21 22.0599 23.26L26.2999 27.5C26.5899 27.79 27.0699 27.79 27.3599 27.5C27.6499 27.21 27.6499 26.73 27.3599 26.44L23.1199 22.2C23.1199 22.2 23.0299 22.12 22.9799 22.09C26.5599 18.05 26.4199 11.87 22.5499 8C18.5399 4 12.0299 4 8.00994 8.01Z" fill="black"/>
</g>
<defs>
<clipPath id="clip0_156_20">
<rect width="22.58" height="22.73" fill="white" transform="translate(5 5)"/>
</clipPath>
</defs>
</svg>
