<svg width="57" height="206" viewBox="0 0 57 206" fill="none" xmlns="http://www.w3.org/2000/svg">
<circle cx="6.78711" cy="30.8927" r="6.67969" fill="#06C269"/>
<circle cx="6.78711" cy="6.84583" r="6.67969" fill="#06C269"/>
<circle cx="6.78711" cy="54.9396" r="6.67969" fill="#06C269"/>
<circle cx="6.78711" cy="78.9865" r="6.67969" fill="#06C269"/>
<circle cx="6.78711" cy="103.033" r="6.67969" fill="#06C269"/>
<circle cx="6.78711" cy="127.08" r="6.67969" fill="#06C269"/>
<circle cx="6.78711" cy="151.127" r="6.67969" fill="#06C269"/>
<circle cx="6.78711" cy="175.174" r="6.67969" fill="#06C269"/>
<circle cx="6.78711" cy="199.221" r="6.67969" fill="#06C269"/>
<circle cx="28.1465" cy="30.8927" r="6.67969" fill="#06C269"/>
<circle cx="28.1465" cy="6.84583" r="6.67969" fill="#06C269"/>
<circle cx="28.1465" cy="54.9396" r="6.67969" fill="#06C269"/>
<circle cx="28.1465" cy="78.9865" r="6.67969" fill="#06C269"/>
<circle cx="28.1465" cy="103.033" r="6.67969" fill="#06C269"/>
<circle cx="28.1465" cy="127.08" r="6.67969" fill="#06C269"/>
<circle cx="28.1465" cy="151.127" r="6.67969" fill="#06C269"/>
<circle cx="28.1465" cy="175.174" r="6.67969" fill="#06C269"/>
<circle cx="28.1465" cy="199.221" r="6.67969" fill="#06C269"/>
<circle cx="49.5059" cy="30.8927" r="6.67969" fill="#06C269"/>
<circle cx="49.5059" cy="6.84583" r="6.67969" fill="#06C269"/>
<circle cx="49.5059" cy="54.9396" r="6.67969" fill="#06C269"/>
<circle cx="49.5059" cy="78.9865" r="6.67969" fill="#06C269"/>
<circle cx="49.5059" cy="103.033" r="6.67969" fill="#06C269"/>
<circle cx="49.5059" cy="127.08" r="6.67969" fill="#06C269"/>
<circle cx="49.5059" cy="151.127" r="6.67969" fill="#06C269"/>
<circle cx="49.5059" cy="175.174" r="6.67969" fill="#06C269"/>
<circle cx="49.5059" cy="197.885" r="6.67969" fill="#06C269"/>
</svg>
