<svg width="140" height="25" viewBox="0 0 140 25" fill="none" xmlns="http://www.w3.org/2000/svg">
<path d="M12 0.165955L15.1176 7.87493L23.4127 8.45775L17.0444 13.805L19.0534 21.8742L12 17.47L4.94658 21.8742L6.9556 13.805L0.587322 8.45775L8.88239 7.87493L12 0.165955Z" fill="#4E48E0"/>
<path d="M41 0.165955L44.1176 7.87493L52.4127 8.45775L46.0444 13.805L48.0534 21.8742L41 17.47L33.9466 21.8742L35.9556 13.805L29.5873 8.45775L37.8824 7.87493L41 0.165955Z" fill="#4E48E0"/>
<path d="M70 0.165955L73.1176 7.87493L81.4127 8.45775L75.0444 13.805L77.0534 21.8742L70 17.47L62.9466 21.8742L64.9556 13.805L58.5873 8.45775L66.8824 7.87493L70 0.165955Z" fill="#4E48E0"/>
<path d="M99 0.165955L102.118 7.87493L110.413 8.45775L104.044 13.805L106.053 21.8742L99 17.47L91.9466 21.8742L93.9556 13.805L87.5873 8.45775L95.8824 7.87493L99 0.165955Z" fill="#4E48E0"/>
<path d="M128 0.165955L131.118 7.87493L139.413 8.45775L133.044 13.805L135.053 21.8742L128 17.47L120.947 21.8742L122.956 13.805L116.587 8.45775L124.882 7.87493L128 0.165955Z" fill="#4E48E0"/>
</svg>
