<svg width="140" height="25" viewBox="0 0 140 25" fill="none" xmlns="http://www.w3.org/2000/svg">
<path d="M12 0.125L15.1176 7.83397L23.4127 8.4168L17.0444 13.764L19.0534 21.8332L12 17.429L4.94658 21.8332L6.9556 13.764L0.587322 8.4168L8.88239 7.83397L12 0.125Z" fill="#09C269"/>
<path d="M41 0.125L44.1176 7.83397L52.4127 8.4168L46.0444 13.764L48.0534 21.8332L41 17.429L33.9466 21.8332L35.9556 13.764L29.5873 8.4168L37.8824 7.83397L41 0.125Z" fill="#09C269"/>
<path d="M70 0.125L73.1176 7.83397L81.4127 8.4168L75.0444 13.764L77.0534 21.8332L70 17.429L62.9466 21.8332L64.9556 13.764L58.5873 8.4168L66.8824 7.83397L70 0.125Z" fill="#09C269"/>
<path d="M99 0.125L102.118 7.83397L110.413 8.4168L104.044 13.764L106.053 21.8332L99 17.429L91.9466 21.8332L93.9556 13.764L87.5873 8.4168L95.8824 7.83397L99 0.125Z" fill="#09C269"/>
<path d="M128 0.125L131.118 7.83397L139.413 8.4168L133.044 13.764L135.053 21.8332L128 17.429L120.947 21.8332L122.956 13.764L116.587 8.4168L124.882 7.83397L128 0.125Z" fill="#09C269"/>
</svg>
