<svg width="16" height="16" viewBox="0 0 16 16" fill="none" xmlns="http://www.w3.org/2000/svg">
<path d="M6.6 10.1429L10.233 8L6.6 5.85714V10.1429ZM14.692 4.55C14.783 4.88571 14.846 5.33571 14.888 5.90714C14.937 6.47857 14.958 6.97143 14.958 7.4L15 8C15 9.56429 14.888 10.7143 14.692 11.45C14.517 12.0929 14.111 12.5071 13.481 12.6857C13.152 12.7786 12.55 12.8429 11.626 12.8857C10.716 12.9357 9.883 12.9571 9.113 12.9571L8 13C5.067 13 3.24 12.8857 2.519 12.6857C1.889 12.5071 1.483 12.0929 1.308 11.45C1.217 11.1143 1.154 10.6643 1.112 10.0929C1.063 9.52143 1.042 9.02857 1.042 8.6L1 8C1 6.43571 1.112 5.28571 1.308 4.55C1.483 3.90714 1.889 3.49286 2.519 3.31429C2.848 3.22143 3.45 3.15714 4.374 3.11429C5.284 3.06429 6.117 3.04286 6.887 3.04286L8 3C10.933 3 12.76 3.11429 13.481 3.31429C14.111 3.49286 14.517 3.90714 14.692 4.55Z" fill="black"/>
</svg>
